<?xml version="1.0" encoding="UTF-8" standalone="no"?>
<svg
   xmlns:dc="http://purl.org/dc/elements/1.1/"
   xmlns:cc="http://creativecommons.org/ns#"
   xmlns:rdf="http://www.w3.org/1999/02/22-rdf-syntax-ns#"
   xmlns:svg="http://www.w3.org/2000/svg"
   xmlns="http://www.w3.org/2000/svg"
   xmlns:sodipodi="http://sodipodi.sourceforge.net/DTD/sodipodi-0.dtd"
   xmlns:inkscape="http://www.inkscape.org/namespaces/inkscape"
   version="1.0"
   width="100%"
   height="100%"
   viewBox="0 0 266.000000 266.000000"
   preserveAspectRatio="xMidYMid meet"
   id="svg4328"
   inkscape:version="0.91 r13725"
   sodipodi:docname="square-owl.svg">
  <defs
     id="defs4342" />
  <sodipodi:namedview
     pagecolor="#ffffff"
     bordercolor="#666666"
     borderopacity="1"
     objecttolerance="10"
     gridtolerance="10"
     guidetolerance="10"
     inkscape:pageopacity="0"
     inkscape:pageshadow="2"
     inkscape:window-width="1280"
     inkscape:window-height="736"
     id="namedview4340"
     showgrid="false"
     inkscape:zoom="5.0188632"
     inkscape:cx="118.29202"
     inkscape:cy="86.515208"
     inkscape:window-x="0"
     inkscape:window-y="21"
     inkscape:window-maximized="1"
     inkscape:current-layer="svg4328" />
  <metadata
     id="metadata4330">
Created by potrace 1.13, written by Peter Selinger 2001-2015
<rdf:RDF>
  <cc:Work
     rdf:about="">
    <dc:format>image/svg+xml</dc:format>
    <dc:type
       rdf:resource="http://purl.org/dc/dcmitype/StillImage" />
    <dc:title></dc:title>
  </cc:Work>
</rdf:RDF>
</metadata>
  <g
     transform="translate(0.000000,266.000000) scale(0.100000,-0.100000)"
     id="g4332"
     stroke="none"
     fill="#7a1501">
    <path
       d="M1244 2505 c-75 -16 -170 -63 -247 -122 -53 -41 -152 -147 -188 -202 l-15 -24 -125 32 c-217 55 -385 155 -482 286 -36 49 -28 20 16 -54 42 -70 141 -170 214 -214 51 -31 172 -84 228 -100 11 -4 -7 -4 -40 -1 -140 14 -347 95 -485 192 l-75 53 86 -84 c121 -117 269 -190 427 -212 l54 -7 -34 -35 -33 -34 -200 3 -200 3 1 -77 c1 -77 2 -78 44 -124 23 -26 60 -84 82 -132 83 -182 102 -214 151 -257 l49 -43 -12 -58 c-6 -33 -14 -67 -16 -76 -5 -16 0 -17 39 -12 118 16 228 -63 262 -190 24 -86 17 -235 -14 -326 -47 -136 -192 -404 -308 -568 l-15 -22 931 0 c512 0 931 2 931 4 0 3 -36 60 -81 128 -92 140 -204 358 -240 468 -19 60 -24 96 -24 180 0 135 20 196 85 260 53 54 121 77 195 65 54 -8 53 -9 25 118 l-19 88 30 42 c17 23 59 101 94 173 43 89 74 140 99 162 36 31 36 32 36 111 l0 79 -37 7 c-21 4 -106 5 -190 4 -152 -3 -153 -3 -178 22 l-26 25 66 13 c145 26 284 97 398 201 80 73 88 96 15 39 -114 -87 -352 -182 -487 -194 l-56 -5 67 24 c182 66 330 184 397 316 32 63 32 64 5 30 -92 -117 -216 -198 -384 -253 -165 -54 -153 -54 -194 2 -61 82 -197 204 -274 245 -117 61 -228 77 -348 51z m-253 -480 c45 -16 119 -62 119 -75 0 -4 -26 -3 -57 1 -32 4 -125 13 -207 18 -82 6 -152 13 -154 16 -3 3 19 16 49 30 65 30 180 34 250 10z m912 -14 c26 -13 46 -25 44 -28 -4 -4 -105 -12 -337 -29 l-95 -6 42 31 c65 49 107 61 208 58 71 -2 100 -7 138 -26z m-1001 -115 c128 -18 186 -41 219 -87 71 -99 -23 -362 -155 -432 -36 -20 -56 -22 -176 -22 -113 0 -147 4 -208 23 -81 26 -150 79 -182 142 -61 119 -84 303 -44 357 11 15 32 31 45 35 38 12 384 1 501 -16z m1335 5 c31 -21 43 -54 43 -118 0 -106 -54 -270 -108 -326 -60 -64 -200 -107 -347 -107 -181 0 -254 47 -316 202 -27 68 -33 97 -33 161 -1 78 -1 79 36 112 45 42 106 60 258 79 152 19 436 17 467 -3z m-858 -565 c79 -41 135 -151 135 -266 0 -115 -56 -225 -135 -266 -40 -20 -113 -18 -160 6 -169 87 -170 430 -2 519 45 24 122 27 162 7z"
       id="path4334" />
    <path
       d="M459 1089 l-36 -10 -12 -117 c-18 -174 -25 -447 -16 -625 l7 -159 45 79 c209 364 271 603 197 758 -34 70 -102 97 -185 74z"
       id="path4336" />
    <path
       d="M2100 1082 c-24 -12 -43 -33 -60 -67 -22 -44 -25 -62 -25 -160 1 -131 19 -191 125 -410 91 -190 145 -282 154 -260 3 9 6 149 6 312 0 291 -12 517 -30 560 -17 40 -111 55 -170 25z"
       id="path4338" />
  </g>
  <path
     style="opacity:1;fill:#ffffff;fill-opacity:0;stroke:#7a1501;stroke-width:0.582;stroke-linecap:butt;stroke-linejoin:miter;stroke-miterlimit:4;stroke-dasharray:none;stroke-opacity:1"
     d="m 128.43864,187.39059 c -3.63663,-0.38915 -6.27256,-1.57334 -9.34565,-4.19856 -5.78033,-4.9379 -9.19137,-12.26659 -9.96177,-21.40308 -0.22171,-2.62956 -0.10818,-4.96312 0.4152,-8.53392 0.43139,-2.94322 1.16018,-6.3838 1.57663,-7.44354 l 0.18821,-0.47901 0.32423,0.35338 c 0.37597,0.40976 1.3466,0.74208 2.16757,0.74208 1.40641,0 3.89087,1.0104 6.0831,2.4739 3.01307,2.01152 6.03074,5.16089 7.87322,8.21688 1.18031,1.95774 1.9939,3.20725 2.08824,3.20725 0.14234,0 0.65426,-0.69355 1.97956,-2.68205 1.77731,-2.66675 2.48559,-3.58121 3.99944,-5.16367 1.58101,-1.65268 2.68529,-2.59432 4.33987,-3.70082 2.22505,-1.48793 4.02084,-2.15996 6.29354,-2.35519 1.48662,-0.12775 2.09028,-0.32135 2.31097,-0.74114 0.13913,-0.26472 0.16576,-0.2379 0.56518,0.56875 0.55958,1.13013 0.79856,1.86653 1.09321,3.36866 0.55358,2.82214 0.84929,6.45382 0.84866,10.42356 -5.6e-4,4.08428 -0.23697,6.06191 -1.07427,8.98836 -2.66947,9.33036 -9.44316,16.77046 -16.54911,18.17728 -1.19043,0.23565 -3.84411,0.32768 -5.21603,0.18088 z"
     id="path4199"
     inkscape:connector-curvature="0" />
</svg>
